<svg id="visual" viewBox="0 0 900 600" width="900" height="600" xmlns="http://www.w3.org/2000/svg" xmlns:xlink="http://www.w3.org/1999/xlink" version="1.1"><g stroke-width="1" stroke-linejoin="bevel"><path d="M423 288L470 274.1L421 270Z" fill="#117501" stroke="#117501"></path><path d="M470 274.1L450 236.1L421 270Z" fill="#005100" stroke="#005100"></path><path d="M516 330L514 282L470 274.1Z" fill="#218702" stroke="#218702"></path><path d="M470 274.1L499 212.3L450 236.1Z" fill="#218702" stroke="#218702"></path><path d="M423 288L471 340.9L470 274.1Z" fill="#004000" stroke="#004000"></path><path d="M450 236.1L386 228.1L421 270Z" fill="#2f9902" stroke="#2f9902"></path><path d="M421 270L362 293L423 288Z" fill="#005100" stroke="#005100"></path><path d="M499 212.3L442 195.3L450 236.1Z" fill="#117501" stroke="#117501"></path><path d="M450 236.1L442 195.3L386 228.1Z" fill="#117501" stroke="#117501"></path><path d="M516 330L528 287.1L514 282Z" fill="#002f00" stroke="#002f00"></path><path d="M514 282L499 212.3L470 274.1Z" fill="#218702" stroke="#218702"></path><path d="M560 245.1L499 212.3L514 282Z" fill="#004000" stroke="#004000"></path><path d="M356 277.1L362 293L421 270Z" fill="#117501" stroke="#117501"></path><path d="M420 370.9L438 372.7L471 340.9Z" fill="#002300" stroke="#002300"></path><path d="M471 340.9L516 330L470 274.1Z" fill="#117501" stroke="#117501"></path><path d="M386 228.1L356 277.1L421 270Z" fill="#2f9902" stroke="#2f9902"></path><path d="M354 366.9L375 333.9L294 338.9Z" fill="#4dbf00" stroke="#4dbf00"></path><path d="M362 293L375 333.9L423 288Z" fill="#000000" stroke="#000000"></path><path d="M420 370.9L471 340.9L423 288Z" fill="#117501" stroke="#117501"></path><path d="M471 340.9L524 375.7L516 330Z" fill="#2f9902" stroke="#2f9902"></path><path d="M375 333.9L420 370.9L423 288Z" fill="#005100" stroke="#005100"></path><path d="M499 212.3L447 175.4L442 195.3Z" fill="#005100" stroke="#005100"></path><path d="M442 195.3L377 194.3L386 228.1Z" fill="#002f00" stroke="#002f00"></path><path d="M338 221.3L341 260.1L386 228.1Z" fill="#002f00" stroke="#002f00"></path><path d="M386 228.1L341 260.1L356 277.1Z" fill="#000000" stroke="#000000"></path><path d="M356 277.1L298 310L362 293Z" fill="#000000" stroke="#000000"></path><path d="M447 175.4L377 194.3L442 195.3Z" fill="#3eac02" stroke="#3eac02"></path><path d="M557 324.9L559 296L528 287.1Z" fill="#005100" stroke="#005100"></path><path d="M528 287.1L560 245.1L514 282Z" fill="#005100" stroke="#005100"></path><path d="M417 401.6L427 391.7L420 370.9Z" fill="#005100" stroke="#005100"></path><path d="M420 370.9L427 391.7L438 372.7Z" fill="#218702" stroke="#218702"></path><path d="M509 402.7L524 375.7L471 340.9Z" fill="#117501" stroke="#117501"></path><path d="M534 187.4L509 177.4L499 212.3Z" fill="#006300" stroke="#006300"></path><path d="M499 212.3L509 177.4L447 175.4Z" fill="#002f00" stroke="#002f00"></path><path d="M559 296L560 245.1L528 287.1Z" fill="#218702" stroke="#218702"></path><path d="M349 198.3L338 221.3L386 228.1Z" fill="#4dbf00" stroke="#4dbf00"></path><path d="M560 245.1L552 218.3L499 212.3Z" fill="#117501" stroke="#117501"></path><path d="M524 375.7L557 324.9L516 330Z" fill="#005100" stroke="#005100"></path><path d="M516 330L557 324.9L528 287.1Z" fill="#117501" stroke="#117501"></path><path d="M355 166.4L349 198.3L377 194.3Z" fill="#004000" stroke="#004000"></path><path d="M377 194.3L349 198.3L386 228.1Z" fill="#3eac02" stroke="#3eac02"></path><path d="M552 218.3L534 187.4L499 212.3Z" fill="#006300" stroke="#006300"></path><path d="M509 402.7L471 340.9L468 416.6Z" fill="#117501" stroke="#117501"></path><path d="M355 397.6L417 401.6L420 370.9Z" fill="#002300" stroke="#002300"></path><path d="M468 416.6L471 340.9L438 372.7Z" fill="#006300" stroke="#006300"></path><path d="M298 310L375 333.9L362 293Z" fill="#002f00" stroke="#002f00"></path><path d="M375 333.9L354 366.9L420 370.9Z" fill="#4dbf00" stroke="#4dbf00"></path><path d="M328 391.7L352 374.7L354 366.9Z" fill="#005100" stroke="#005100"></path><path d="M354 366.9L352 374.7L420 370.9Z" fill="#117501" stroke="#117501"></path><path d="M468 416.6L438 372.7L427 391.7Z" fill="#3eac02" stroke="#3eac02"></path><path d="M524 375.7L584 333.9L557 324.9Z" fill="#2f9902" stroke="#2f9902"></path><path d="M417 401.6L468 416.6L427 391.7Z" fill="#002300" stroke="#002300"></path><path d="M388 142.4L355 166.4L377 194.3Z" fill="#000000" stroke="#000000"></path><path d="M349 198.3L315 200.4L338 221.3Z" fill="#218702" stroke="#218702"></path><path d="M388 142.4L377 194.3L447 175.4Z" fill="#002300" stroke="#002300"></path><path d="M398 116.6L388 142.4L447 175.4Z" fill="#005100" stroke="#005100"></path><path d="M522 129.6L473 131.6L509 177.4Z" fill="#3eac02" stroke="#3eac02"></path><path d="M509 177.4L473 131.6L447 175.4Z" fill="#002f00" stroke="#002f00"></path><path d="M549 401.6L584 333.9L524 375.7Z" fill="#4dbf00" stroke="#4dbf00"></path><path d="M557 324.9L584 333.9L559 296Z" fill="#117501" stroke="#117501"></path><path d="M559 296L606 306L560 245.1Z" fill="#006300" stroke="#006300"></path><path d="M355 166.4L315 200.4L349 198.3Z" fill="#002300" stroke="#002300"></path><path d="M338 221.3L299 236.3L341 260.1Z" fill="#002300" stroke="#002300"></path><path d="M341 260.1L298 310L356 277.1Z" fill="#4dbf00" stroke="#4dbf00"></path><path d="M299 236.3L298 310L341 260.1Z" fill="#3eac02" stroke="#3eac02"></path><path d="M328 391.7L355 397.6L352 374.7Z" fill="#000000" stroke="#000000"></path><path d="M352 374.7L355 397.6L420 370.9Z" fill="#005100" stroke="#005100"></path><path d="M417 401.6L421 479.4L468 416.6Z" fill="#3eac02" stroke="#3eac02"></path><path d="M315 200.4L299 236.3L338 221.3Z" fill="#005100" stroke="#005100"></path><path d="M217 305L295 316L298 310Z" fill="#000000" stroke="#000000"></path><path d="M298 310L294 338.9L375 333.9Z" fill="#006300" stroke="#006300"></path><path d="M484 486.3L501 423.6L468 416.6Z" fill="#000000" stroke="#000000"></path><path d="M468 416.6L501 423.6L509 402.7Z" fill="#005100" stroke="#005100"></path><path d="M509 402.7L549 401.6L524 375.7Z" fill="#005100" stroke="#005100"></path><path d="M501 423.6L549 401.6L509 402.7Z" fill="#002f00" stroke="#002f00"></path><path d="M295 316L294 338.9L298 310Z" fill="#4dbf00" stroke="#4dbf00"></path><path d="M640 318.9L606 306L584 333.9Z" fill="#002300" stroke="#002300"></path><path d="M584 333.9L606 306L559 296Z" fill="#002f00" stroke="#002f00"></path><path d="M560 245.1L590 195.3L552 218.3Z" fill="#117501" stroke="#117501"></path><path d="M587 155.6L522 129.6L534 187.4Z" fill="#002300" stroke="#002300"></path><path d="M294 338.9L328 391.7L354 366.9Z" fill="#004000" stroke="#004000"></path><path d="M590 195.3L534 187.4L552 218.3Z" fill="#218702" stroke="#218702"></path><path d="M534 187.4L522 129.6L509 177.4Z" fill="#005100" stroke="#005100"></path><path d="M622 227.3L590 195.3L560 245.1Z" fill="#000000" stroke="#000000"></path><path d="M473 131.6L398 116.6L447 175.4Z" fill="#3eac02" stroke="#3eac02"></path><path d="M388 142.4L333 113.6L355 166.4Z" fill="#4dbf00" stroke="#4dbf00"></path><path d="M355 166.4L292 145.6L315 200.4Z" fill="#218702" stroke="#218702"></path><path d="M461 56.7L398 116.6L473 131.6Z" fill="#002300" stroke="#002300"></path><path d="M315 200.4L276 245.1L299 236.3Z" fill="#000000" stroke="#000000"></path><path d="M299 236.3L276 245.1L298 310Z" fill="#002300" stroke="#002300"></path><path d="M217 305L276 363.9L294 338.9Z" fill="#006300" stroke="#006300"></path><path d="M606 306L620 247.1L560 245.1Z" fill="#000000" stroke="#000000"></path><path d="M522 129.6L489 102.6L473 131.6Z" fill="#218702" stroke="#218702"></path><path d="M612 167.4L595 173.4L590 195.3Z" fill="#117501" stroke="#117501"></path><path d="M590 195.3L595 173.4L534 187.4Z" fill="#218702" stroke="#218702"></path><path d="M522 129.6L512 72.9L489 102.6Z" fill="#000000" stroke="#000000"></path><path d="M620 247.1L622 227.3L560 245.1Z" fill="#004000" stroke="#004000"></path><path d="M612 167.4L587 155.6L595 173.4Z" fill="#218702" stroke="#218702"></path><path d="M595 173.4L587 155.6L534 187.4Z" fill="#004000" stroke="#004000"></path><path d="M217 305L294 338.9L295 316Z" fill="#218702" stroke="#218702"></path><path d="M294 338.9L276 363.9L328 391.7Z" fill="#4dbf00" stroke="#4dbf00"></path><path d="M598 398.6L615 370.7L584 333.9Z" fill="#4dbf00" stroke="#4dbf00"></path><path d="M606 306L640 318.9L620 247.1Z" fill="#005100" stroke="#005100"></path><path d="M620 247.1L654 221.3L622 227.3Z" fill="#005100" stroke="#005100"></path><path d="M549 401.6L598 398.6L584 333.9Z" fill="#218702" stroke="#218702"></path><path d="M599 418.6L598 398.6L549 401.6Z" fill="#006300" stroke="#006300"></path><path d="M376 84.7L333 113.6L398 116.6Z" fill="#000000" stroke="#000000"></path><path d="M398 116.6L333 113.6L388 142.4Z" fill="#006300" stroke="#006300"></path><path d="M239 168.4L244 237.1L276 245.1Z" fill="#218702" stroke="#218702"></path><path d="M622 227.3L612 167.4L590 195.3Z" fill="#218702" stroke="#218702"></path><path d="M587 155.6L557 100.7L522 129.6Z" fill="#000000" stroke="#000000"></path><path d="M615 370.7L640 318.9L584 333.9Z" fill="#006300" stroke="#006300"></path><path d="M622 227.3L654 221.3L612 167.4Z" fill="#117501" stroke="#117501"></path><path d="M276 363.9L288 399.6L328 391.7Z" fill="#002300" stroke="#002300"></path><path d="M328 391.7L323 447.4L355 397.6Z" fill="#4dbf00" stroke="#4dbf00"></path><path d="M382 473.4L421 479.4L417 401.6Z" fill="#004000" stroke="#004000"></path><path d="M288 399.6L296 410.6L328 391.7Z" fill="#005100" stroke="#005100"></path><path d="M333 113.6L292 145.6L355 166.4Z" fill="#3eac02" stroke="#3eac02"></path><path d="M598 398.6L617 384.7L615 370.7Z" fill="#006300" stroke="#006300"></path><path d="M615 370.7L685 370.9L640 318.9Z" fill="#3eac02" stroke="#3eac02"></path><path d="M390 50.9L376 84.7L424 44.9Z" fill="#2f9902" stroke="#2f9902"></path><path d="M382 473.4L417 401.6L355 397.6Z" fill="#006300" stroke="#006300"></path><path d="M561 465.4L599 418.6L549 401.6Z" fill="#006300" stroke="#006300"></path><path d="M239 168.4L276 245.1L315 200.4Z" fill="#117501" stroke="#117501"></path><path d="M276 245.1L217 305L298 310Z" fill="#117501" stroke="#117501"></path><path d="M276 363.9L278 397.7L288 399.6Z" fill="#4dbf00" stroke="#4dbf00"></path><path d="M288 399.6L278 397.7L296 410.6Z" fill="#2f9902" stroke="#2f9902"></path><path d="M249 390.7L278 397.7L276 363.9Z" fill="#218702" stroke="#218702"></path><path d="M323 447.4L328 391.7L296 410.6Z" fill="#006300" stroke="#006300"></path><path d="M323 447.4L382 473.4L355 397.6Z" fill="#117501" stroke="#117501"></path><path d="M333 113.6L291 136.6L292 145.6Z" fill="#002300" stroke="#002300"></path><path d="M292 145.6L273 143.4L315 200.4Z" fill="#117501" stroke="#117501"></path><path d="M273 143.4L291 136.6L251 113.6Z" fill="#000000" stroke="#000000"></path><path d="M623 133.6L557 100.7L587 155.6Z" fill="#000000" stroke="#000000"></path><path d="M489 102.6L461 56.7L473 131.6Z" fill="#006300" stroke="#006300"></path><path d="M561 465.4L549 401.6L501 423.6Z" fill="#117501" stroke="#117501"></path><path d="M598 398.6L599 418.6L617 384.7Z" fill="#005100" stroke="#005100"></path><path d="M279 478.4L323 447.4L296 410.6Z" fill="#2f9902" stroke="#2f9902"></path><path d="M421 479.4L484 486.3L468 416.6Z" fill="#2f9902" stroke="#2f9902"></path><path d="M557 100.7L512 72.9L522 129.6Z" fill="#004000" stroke="#004000"></path><path d="M389 507.3L391 485.3L382 473.4Z" fill="#005100" stroke="#005100"></path><path d="M382 473.4L391 485.3L421 479.4Z" fill="#218702" stroke="#218702"></path><path d="M421 479.4L453 501.3L484 486.3Z" fill="#005100" stroke="#005100"></path><path d="M677 254.1L654 221.3L620 247.1Z" fill="#002f00" stroke="#002f00"></path><path d="M257 59.9L291 136.6L333 113.6Z" fill="#218702" stroke="#218702"></path><path d="M291 136.6L273 143.4L292 145.6Z" fill="#3eac02" stroke="#3eac02"></path><path d="M512 72.9L461 56.7L489 102.6Z" fill="#006300" stroke="#006300"></path><path d="M515 56.7L511 65.7L512 72.9Z" fill="#002f00" stroke="#002f00"></path><path d="M512 72.9L511 65.7L461 56.7Z" fill="#000000" stroke="#000000"></path><path d="M526 483.3L561 465.4L501 423.6Z" fill="#002f00" stroke="#002f00"></path><path d="M344 59.9L339 81.7L376 84.7Z" fill="#006300" stroke="#006300"></path><path d="M376 84.7L339 81.7L333 113.6Z" fill="#006300" stroke="#006300"></path><path d="M484 486.3L526 483.3L501 423.6Z" fill="#2f9902" stroke="#2f9902"></path><path d="M401 530.1L453 501.3L421 479.4Z" fill="#006300" stroke="#006300"></path><path d="M484 486.3L487 501.4L526 483.3Z" fill="#218702" stroke="#218702"></path><path d="M206 355.9L249 390.7L276 363.9Z" fill="#000000" stroke="#000000"></path><path d="M278 397.7L252 423.6L296 410.6Z" fill="#218702" stroke="#218702"></path><path d="M453 501.3L479 501.4L484 486.3Z" fill="#002300" stroke="#002300"></path><path d="M612 167.4L623 133.6L587 155.6Z" fill="#2f9902" stroke="#2f9902"></path><path d="M557 100.7L515 56.7L512 72.9Z" fill="#004000" stroke="#004000"></path><path d="M655 116.6L623 133.6L674 142.4Z" fill="#218702" stroke="#218702"></path><path d="M479 501.4L487 501.4L484 486.3Z" fill="#4dbf00" stroke="#4dbf00"></path><path d="M179 316.9L217 305L166 281Z" fill="#000000" stroke="#000000"></path><path d="M244 237.1L217 305L276 245.1Z" fill="#002f00" stroke="#002f00"></path><path d="M590 70.9L515 56.7L557 100.7Z" fill="#4dbf00" stroke="#4dbf00"></path><path d="M511 65.7L515 56.7L461 56.7Z" fill="#000000" stroke="#000000"></path><path d="M424 44.9L398 116.6L461 56.7Z" fill="#3eac02" stroke="#3eac02"></path><path d="M424 44.9L376 84.7L398 116.6Z" fill="#002f00" stroke="#002f00"></path><path d="M459 0L424 44.9L461 56.7Z" fill="#3eac02" stroke="#3eac02"></path><path d="M251 113.6L239 168.4L273 143.4Z" fill="#006300" stroke="#006300"></path><path d="M273 143.4L239 168.4L315 200.4Z" fill="#006300" stroke="#006300"></path><path d="M640 318.9L677 254.1L620 247.1Z" fill="#218702" stroke="#218702"></path><path d="M674 142.4L623 133.6L612 167.4Z" fill="#002300" stroke="#002300"></path><path d="M679 301L677 254.1L640 318.9Z" fill="#004000" stroke="#004000"></path><path d="M685 370.9L615 370.7L617 384.7Z" fill="#000000" stroke="#000000"></path><path d="M685 370.9L679 301L640 318.9Z" fill="#4dbf00" stroke="#4dbf00"></path><path d="M315 531.3L389 507.3L382 473.4Z" fill="#000000" stroke="#000000"></path><path d="M391 485.3L389 507.3L421 479.4Z" fill="#2f9902" stroke="#2f9902"></path><path d="M453 501.3L491 534.1L479 501.4Z" fill="#005100" stroke="#005100"></path><path d="M479 501.4L491 534.1L487 501.4Z" fill="#005100" stroke="#005100"></path><path d="M401 530.1L389 507.3L315 531.3Z" fill="#117501" stroke="#117501"></path><path d="M390 50.9L344 59.9L376 84.7Z" fill="#218702" stroke="#218702"></path><path d="M257 59.9L251 113.6L291 136.6Z" fill="#006300" stroke="#006300"></path><path d="M634 464.4L645 409.6L599 418.6Z" fill="#002300" stroke="#002300"></path><path d="M599 418.6L645 409.6L617 384.7Z" fill="#2f9902" stroke="#2f9902"></path><path d="M344 59.9L333 63.7L339 81.7Z" fill="#117501" stroke="#117501"></path><path d="M201 434.6L252 423.6L249 390.7Z" fill="#117501" stroke="#117501"></path><path d="M249 390.7L252 423.6L278 397.7Z" fill="#004000" stroke="#004000"></path><path d="M201 112.6L213 186.3L239 168.4Z" fill="#3eac02" stroke="#3eac02"></path><path d="M239 168.4L213 186.3L244 237.1Z" fill="#006300" stroke="#006300"></path><path d="M623 133.6L590 70.9L557 100.7Z" fill="#4dbf00" stroke="#4dbf00"></path><path d="M217 305L206 355.9L276 363.9Z" fill="#002300" stroke="#002300"></path><path d="M179 316.9L206 355.9L217 305Z" fill="#006300" stroke="#006300"></path><path d="M257 59.9L333 113.6L339 81.7Z" fill="#2f9902" stroke="#2f9902"></path><path d="M315 531.3L382 473.4L323 447.4Z" fill="#2f9902" stroke="#2f9902"></path><path d="M389 507.3L401 530.1L421 479.4Z" fill="#004000" stroke="#004000"></path><path d="M645 409.6L685 370.9L617 384.7Z" fill="#002300" stroke="#002300"></path><path d="M679 301L704 265.1L677 254.1Z" fill="#2f9902" stroke="#2f9902"></path><path d="M728 302L704 265.1L679 301Z" fill="#218702" stroke="#218702"></path><path d="M736 224.3L696 163.4L654 221.3Z" fill="#002f00" stroke="#002f00"></path><path d="M623 133.6L612 60.7L590 70.9Z" fill="#218702" stroke="#218702"></path><path d="M291 517.3L279 478.4L246 490.3Z" fill="#2f9902" stroke="#2f9902"></path><path d="M252 423.6L279 478.4L296 410.6Z" fill="#006300" stroke="#006300"></path><path d="M476 572.1L491 534.1L453 501.3Z" fill="#006300" stroke="#006300"></path><path d="M487 501.4L491 534.1L526 483.3Z" fill="#005100" stroke="#005100"></path><path d="M590 511.3L597 494.4L561 465.4Z" fill="#117501" stroke="#117501"></path><path d="M561 465.4L634 464.4L599 418.6Z" fill="#002f00" stroke="#002f00"></path><path d="M674 142.4L612 167.4L654 221.3Z" fill="#002300" stroke="#002300"></path><path d="M696 163.4L674 142.4L654 221.3Z" fill="#002f00" stroke="#002f00"></path><path d="M590 511.3L561 465.4L526 483.3Z" fill="#004000" stroke="#004000"></path><path d="M645 409.6L694 376.7L685 370.9Z" fill="#3eac02" stroke="#3eac02"></path><path d="M597 494.4L634 464.4L561 465.4Z" fill="#002f00" stroke="#002f00"></path><path d="M697 450.4L694 376.7L645 409.6Z" fill="#006300" stroke="#006300"></path><path d="M685 370.9L720 342.9L679 301Z" fill="#002f00" stroke="#002f00"></path><path d="M175 235.1L217 305L244 237.1Z" fill="#3eac02" stroke="#3eac02"></path><path d="M246 490.3L279 478.4L252 423.6Z" fill="#004000" stroke="#004000"></path><path d="M590 70.9L535 19.9L515 56.7Z" fill="#006300" stroke="#006300"></path><path d="M468 0L459 0L461 56.7Z" fill="#004000" stroke="#004000"></path><path d="M424 44.9L385 0L390 50.9Z" fill="#3eac02" stroke="#3eac02"></path><path d="M333 0L308 29.9L344 59.9Z" fill="#002300" stroke="#002300"></path><path d="M562 0L535 19.9L575 0Z" fill="#005100" stroke="#005100"></path><path d="M655 116.6L612 60.7L623 133.6Z" fill="#218702" stroke="#218702"></path><path d="M161 224.3L175 235.1L162 207.3Z" fill="#006300" stroke="#006300"></path><path d="M213 186.3L175 235.1L244 237.1Z" fill="#218702" stroke="#218702"></path><path d="M719 104.6L655 58.7L655 116.6Z" fill="#4dbf00" stroke="#4dbf00"></path><path d="M655 116.6L655 58.7L612 60.7Z" fill="#005100" stroke="#005100"></path><path d="M736 224.3L654 221.3L677 254.1Z" fill="#2f9902" stroke="#2f9902"></path><path d="M597 494.4L659 483.3L634 464.4Z" fill="#005100" stroke="#005100"></path><path d="M509 569.1L590 511.3L526 483.3Z" fill="#002f00" stroke="#002f00"></path><path d="M468 0L461 56.7L515 56.7Z" fill="#117501" stroke="#117501"></path><path d="M257 59.9L339 81.7L333 63.7Z" fill="#000000" stroke="#000000"></path><path d="M535 19.9L468 0L515 56.7Z" fill="#2f9902" stroke="#2f9902"></path><path d="M175 235.1L166 281L217 305Z" fill="#117501" stroke="#117501"></path><path d="M257 59.9L242 82.7L251 113.6Z" fill="#002300" stroke="#002300"></path><path d="M251 113.6L201 112.6L239 168.4Z" fill="#006300" stroke="#006300"></path><path d="M308 29.9L333 63.7L344 59.9Z" fill="#3eac02" stroke="#3eac02"></path><path d="M353 0L344 59.9L390 50.9Z" fill="#2f9902" stroke="#2f9902"></path><path d="M745 387.7L720 342.9L694 376.7Z" fill="#4dbf00" stroke="#4dbf00"></path><path d="M694 376.7L720 342.9L685 370.9Z" fill="#004000" stroke="#004000"></path><path d="M704 265.1L736 224.3L677 254.1Z" fill="#4dbf00" stroke="#4dbf00"></path><path d="M459 0L385 0L424 44.9Z" fill="#002300" stroke="#002300"></path><path d="M720 342.9L728 302L679 301Z" fill="#117501" stroke="#117501"></path><path d="M201 434.6L249 390.7L206 355.9Z" fill="#4dbf00" stroke="#4dbf00"></path><path d="M279 478.4L291 517.3L323 447.4Z" fill="#4dbf00" stroke="#4dbf00"></path><path d="M291 517.3L315 531.3L323 447.4Z" fill="#004000" stroke="#004000"></path><path d="M401 530.1L476 572.1L453 501.3Z" fill="#004000" stroke="#004000"></path><path d="M308 29.9L257 59.9L333 63.7Z" fill="#004000" stroke="#004000"></path><path d="M162 207.3L175 235.1L213 186.3Z" fill="#006300" stroke="#006300"></path><path d="M175 235.1L128 270L166 281Z" fill="#006300" stroke="#006300"></path><path d="M257 59.9L241 69.7L242 82.7Z" fill="#2f9902" stroke="#2f9902"></path><path d="M161 146.4L162 207.3L213 186.3Z" fill="#004000" stroke="#004000"></path><path d="M154 366.7L206 355.9L179 316.9Z" fill="#4dbf00" stroke="#4dbf00"></path><path d="M154 366.7L201 434.6L206 355.9Z" fill="#117501" stroke="#117501"></path><path d="M385 0L353 0L390 50.9Z" fill="#3eac02" stroke="#3eac02"></path><path d="M308 29.9L255 21.9L257 59.9Z" fill="#004000" stroke="#004000"></path><path d="M257 59.9L255 21.9L241 69.7Z" fill="#000000" stroke="#000000"></path><path d="M201 112.6L251 113.6L242 82.7Z" fill="#006300" stroke="#006300"></path><path d="M201 434.6L246 490.3L252 423.6Z" fill="#4dbf00" stroke="#4dbf00"></path><path d="M177 66.7L201 112.6L242 82.7Z" fill="#006300" stroke="#006300"></path><path d="M740 228.1L736 224.3L704 265.1Z" fill="#006300" stroke="#006300"></path><path d="M468 600L476 572.1L385 600Z" fill="#006300" stroke="#006300"></path><path d="M491 534.1L509 569.1L526 483.3Z" fill="#000000" stroke="#000000"></path><path d="M650 532.3L659 483.3L597 494.4Z" fill="#006300" stroke="#006300"></path><path d="M634 464.4L697 450.4L645 409.6Z" fill="#004000" stroke="#004000"></path><path d="M650 532.3L597 494.4L590 511.3Z" fill="#3eac02" stroke="#3eac02"></path><path d="M353 0L333 0L344 59.9Z" fill="#4dbf00" stroke="#4dbf00"></path><path d="M728 302L740 228.1L704 265.1Z" fill="#2f9902" stroke="#2f9902"></path><path d="M736 224.3L749 219.3L696 163.4Z" fill="#218702" stroke="#218702"></path><path d="M476 572.1L509 569.1L491 534.1Z" fill="#000000" stroke="#000000"></path><path d="M575 0L535 19.9L590 70.9Z" fill="#006300" stroke="#006300"></path><path d="M535 19.9L562 0L468 0Z" fill="#117501" stroke="#117501"></path><path d="M291 517.3L300 539.1L315 531.3Z" fill="#004000" stroke="#004000"></path><path d="M315 531.3L334 579.1L401 530.1Z" fill="#002f00" stroke="#002f00"></path><path d="M227 563.1L300 539.1L291 517.3Z" fill="#000000" stroke="#000000"></path><path d="M719 104.6L655 116.6L674 142.4Z" fill="#3eac02" stroke="#3eac02"></path><path d="M612 60.7L575 0L590 70.9Z" fill="#000000" stroke="#000000"></path><path d="M719 104.6L674 142.4L696 163.4Z" fill="#117501" stroke="#117501"></path><path d="M123 341.9L154 366.7L179 316.9Z" fill="#004000" stroke="#004000"></path><path d="M118 301L179 316.9L166 281Z" fill="#002f00" stroke="#002f00"></path><path d="M629 20.9L575 0L612 60.7Z" fill="#002300" stroke="#002300"></path><path d="M659 483.3L697 450.4L634 464.4Z" fill="#218702" stroke="#218702"></path><path d="M785 290L749 219.3L740 228.1Z" fill="#006300" stroke="#006300"></path><path d="M740 228.1L749 219.3L736 224.3Z" fill="#005100" stroke="#005100"></path><path d="M785 290L740 228.1L728 302Z" fill="#4dbf00" stroke="#4dbf00"></path><path d="M785 290L728 302L795 355.9Z" fill="#005100" stroke="#005100"></path><path d="M141 146.6L161 146.4L177 66.7Z" fill="#117501" stroke="#117501"></path><path d="M201 112.6L161 146.4L213 186.3Z" fill="#002f00" stroke="#002f00"></path><path d="M104 271.1L128 270L80 239.3Z" fill="#4dbf00" stroke="#4dbf00"></path><path d="M161 224.3L128 270L175 235.1Z" fill="#117501" stroke="#117501"></path><path d="M655 58.7L629 20.9L612 60.7Z" fill="#002f00" stroke="#002f00"></path><path d="M128 270L161 224.3L80 239.3Z" fill="#006300" stroke="#006300"></path><path d="M276 0L255 21.9L308 29.9Z" fill="#006300" stroke="#006300"></path><path d="M241 69.7L177 66.7L242 82.7Z" fill="#004000" stroke="#004000"></path><path d="M741 427.6L745 387.7L694 376.7Z" fill="#002300" stroke="#002300"></path><path d="M321 582.1L315 531.3L300 539.1Z" fill="#000000" stroke="#000000"></path><path d="M321 582.1L334 579.1L315 531.3Z" fill="#117501" stroke="#117501"></path><path d="M783 147.4L719 104.6L696 163.4Z" fill="#002f00" stroke="#002f00"></path><path d="M655 58.7L652 0L629 20.9Z" fill="#002300" stroke="#002300"></path><path d="M333 0L276 0L308 29.9Z" fill="#2f9902" stroke="#2f9902"></path><path d="M123 341.9L144 396.7L154 366.7Z" fill="#006300" stroke="#006300"></path><path d="M154 366.7L144 396.7L201 434.6Z" fill="#2f9902" stroke="#2f9902"></path><path d="M201 434.6L203 501.4L246 490.3Z" fill="#002f00" stroke="#002f00"></path><path d="M302 600L321 582.1L300 539.1Z" fill="#3eac02" stroke="#3eac02"></path><path d="M385 600L476 572.1L401 530.1Z" fill="#218702" stroke="#218702"></path><path d="M476 572.1L515 600L509 569.1Z" fill="#2f9902" stroke="#2f9902"></path><path d="M612 581.1L650 532.3L590 511.3Z" fill="#2f9902" stroke="#2f9902"></path><path d="M141 146.6L139 163.4L161 146.4Z" fill="#3eac02" stroke="#3eac02"></path><path d="M161 146.4L139 163.4L162 207.3Z" fill="#005100" stroke="#005100"></path><path d="M565 600L590 511.3L509 569.1Z" fill="#218702" stroke="#218702"></path><path d="M717 472.4L729 450.6L697 450.4Z" fill="#000000" stroke="#000000"></path><path d="M697 450.4L741 427.6L694 376.7Z" fill="#4dbf00" stroke="#4dbf00"></path><path d="M104 271.1L118 301L128 270Z" fill="#005100" stroke="#005100"></path><path d="M128 270L118 301L166 281Z" fill="#002f00" stroke="#002f00"></path><path d="M118 301L123 341.9L179 316.9Z" fill="#4dbf00" stroke="#4dbf00"></path><path d="M377 600L385 600L401 530.1Z" fill="#002300" stroke="#002300"></path><path d="M227 563.1L291 517.3L246 490.3Z" fill="#004000" stroke="#004000"></path><path d="M334 579.1L377 600L401 530.1Z" fill="#218702" stroke="#218702"></path><path d="M174 487.4L203 501.4L201 434.6Z" fill="#004000" stroke="#004000"></path><path d="M302 600L377 600L334 579.1Z" fill="#3eac02" stroke="#3eac02"></path><path d="M177 66.7L161 146.4L201 112.6Z" fill="#002f00" stroke="#002f00"></path><path d="M101 182.4L161 224.3L162 207.3Z" fill="#3eac02" stroke="#3eac02"></path><path d="M468 600L515 600L476 572.1Z" fill="#4dbf00" stroke="#4dbf00"></path><path d="M515 600L520 600L509 569.1Z" fill="#002f00" stroke="#002f00"></path><path d="M729 450.6L741 427.6L697 450.4Z" fill="#004000" stroke="#004000"></path><path d="M717 472.4L697 450.4L659 483.3Z" fill="#000000" stroke="#000000"></path><path d="M650 532.3L717 472.4L659 483.3Z" fill="#005100" stroke="#005100"></path><path d="M719 104.6L692 47.9L655 58.7Z" fill="#117501" stroke="#117501"></path><path d="M141 476.4L155 448.6L114 444.6Z" fill="#005100" stroke="#005100"></path><path d="M144 396.7L155 448.6L201 434.6Z" fill="#218702" stroke="#218702"></path><path d="M776 376.7L720 342.9L745 387.7Z" fill="#117501" stroke="#117501"></path><path d="M795 355.9L728 302L720 342.9Z" fill="#2f9902" stroke="#2f9902"></path><path d="M749 219.3L778 180.4L696 163.4Z" fill="#002f00" stroke="#002f00"></path><path d="M202 0L177 66.7L241 69.7Z" fill="#000000" stroke="#000000"></path><path d="M202 0L241 69.7L255 21.9Z" fill="#002f00" stroke="#002f00"></path><path d="M758 67.7L693 42.9L692 47.9Z" fill="#2f9902" stroke="#2f9902"></path><path d="M692 47.9L693 42.9L655 58.7Z" fill="#3eac02" stroke="#3eac02"></path><path d="M629 20.9L652 0L575 0Z" fill="#218702" stroke="#218702"></path><path d="M101 182.4L162 207.3L139 163.4Z" fill="#005100" stroke="#005100"></path><path d="M118 301L99 327.9L123 341.9Z" fill="#004000" stroke="#004000"></path><path d="M155 448.6L174 487.4L201 434.6Z" fill="#005100" stroke="#005100"></path><path d="M248 600L302 600L300 539.1Z" fill="#004000" stroke="#004000"></path><path d="M826 262.1L781 200.3L749 219.3Z" fill="#117501" stroke="#117501"></path><path d="M719 104.6L746 88.7L692 47.9Z" fill="#218702" stroke="#218702"></path><path d="M520 600L565 600L509 569.1Z" fill="#218702" stroke="#218702"></path><path d="M693 42.9L652 0L655 58.7Z" fill="#000000" stroke="#000000"></path><path d="M795 355.9L814 392.7L825 342.9Z" fill="#004000" stroke="#004000"></path><path d="M741 427.6L776 376.7L745 387.7Z" fill="#3eac02" stroke="#3eac02"></path><path d="M776 376.7L741 427.6L814 392.7Z" fill="#2f9902" stroke="#2f9902"></path><path d="M781 200.3L778 180.4L749 219.3Z" fill="#004000" stroke="#004000"></path><path d="M141 476.4L179 499.3L174 487.4Z" fill="#004000" stroke="#004000"></path><path d="M174 487.4L179 499.3L203 501.4Z" fill="#006300" stroke="#006300"></path><path d="M565 600L612 581.1L590 511.3Z" fill="#006300" stroke="#006300"></path><path d="M650 532.3L750 514.3L717 472.4Z" fill="#218702" stroke="#218702"></path><path d="M64 283.1L99 327.9L118 301Z" fill="#005100" stroke="#005100"></path><path d="M89 402.7L114 444.6L144 396.7Z" fill="#3eac02" stroke="#3eac02"></path><path d="M227 563.1L246 490.3L203 501.4Z" fill="#218702" stroke="#218702"></path><path d="M321 582.1L302 600L334 579.1Z" fill="#117501" stroke="#117501"></path><path d="M781 116.6L746 88.7L719 104.6Z" fill="#005100" stroke="#005100"></path><path d="M693 42.9L689 0L652 0Z" fill="#006300" stroke="#006300"></path><path d="M656 568.1L647 570.1L695 600Z" fill="#006300" stroke="#006300"></path><path d="M612 581.1L647 570.1L650 532.3Z" fill="#117501" stroke="#117501"></path><path d="M141 146.6L101 182.4L139 163.4Z" fill="#006300" stroke="#006300"></path><path d="M104 271.1L64 283.1L118 301Z" fill="#002300" stroke="#002300"></path><path d="M105 101.7L101 182.4L141 146.6Z" fill="#002300" stroke="#002300"></path><path d="M776 376.7L795 355.9L720 342.9Z" fill="#002300" stroke="#002300"></path><path d="M785 290L826 262.1L749 219.3Z" fill="#3eac02" stroke="#3eac02"></path><path d="M759 486.4L741 427.6L729 450.6Z" fill="#117501" stroke="#117501"></path><path d="M603 600L647 570.1L612 581.1Z" fill="#005100" stroke="#005100"></path><path d="M647 570.1L656 568.1L650 532.3Z" fill="#3eac02" stroke="#3eac02"></path><path d="M717 472.4L759 486.4L729 450.6Z" fill="#006300" stroke="#006300"></path><path d="M565 600L603 600L612 581.1Z" fill="#4dbf00" stroke="#4dbf00"></path><path d="M187 550.1L227 563.1L203 501.4Z" fill="#002300" stroke="#002300"></path><path d="M831 194.3L783 147.4L778 180.4Z" fill="#4dbf00" stroke="#4dbf00"></path><path d="M778 180.4L783 147.4L696 163.4Z" fill="#117501" stroke="#117501"></path><path d="M831 194.3L778 180.4L781 200.3Z" fill="#117501" stroke="#117501"></path><path d="M114 444.6L155 448.6L144 396.7Z" fill="#3eac02" stroke="#3eac02"></path><path d="M155 448.6L141 476.4L174 487.4Z" fill="#117501" stroke="#117501"></path><path d="M179 499.3L187 550.1L203 501.4Z" fill="#4dbf00" stroke="#4dbf00"></path><path d="M101 182.4L80 239.3L161 224.3Z" fill="#004000" stroke="#004000"></path><path d="M276 0L202 0L255 21.9Z" fill="#218702" stroke="#218702"></path><path d="M177 66.7L105 101.7L141 146.6Z" fill="#006300" stroke="#006300"></path><path d="M697 0L689 0L693 42.9Z" fill="#218702" stroke="#218702"></path><path d="M89 402.7L144 396.7L123 341.9Z" fill="#3eac02" stroke="#3eac02"></path><path d="M89 402.7L123 341.9L99 327.9Z" fill="#2f9902" stroke="#2f9902"></path><path d="M783 147.4L781 116.6L719 104.6Z" fill="#218702" stroke="#218702"></path><path d="M758 67.7L697 0L693 42.9Z" fill="#3eac02" stroke="#3eac02"></path><path d="M758 67.7L692 47.9L746 88.7Z" fill="#117501" stroke="#117501"></path><path d="M189 0L155 37.9L177 66.7Z" fill="#218702" stroke="#218702"></path><path d="M785 67.9L758 67.7L746 88.7Z" fill="#005100" stroke="#005100"></path><path d="M115 528.3L179 499.3L141 476.4Z" fill="#2f9902" stroke="#2f9902"></path><path d="M115 528.3L187 550.1L179 499.3Z" fill="#2f9902" stroke="#2f9902"></path><path d="M227 563.1L248 600L300 539.1Z" fill="#006300" stroke="#006300"></path><path d="M202 0L189 0L177 66.7Z" fill="#002f00" stroke="#002f00"></path><path d="M750 514.3L759 486.4L717 472.4Z" fill="#3eac02" stroke="#3eac02"></path><path d="M33 371.7L89 402.7L99 327.9Z" fill="#004000" stroke="#004000"></path><path d="M203 600L248 600L227 563.1Z" fill="#002f00" stroke="#002f00"></path><path d="M143 42.9L136 56.7L155 37.9Z" fill="#002300" stroke="#002300"></path><path d="M155 37.9L136 56.7L177 66.7Z" fill="#117501" stroke="#117501"></path><path d="M65 187.3L65 256.1L80 239.3Z" fill="#117501" stroke="#117501"></path><path d="M65 187.3L80 239.3L101 182.4Z" fill="#4dbf00" stroke="#4dbf00"></path><path d="M80 239.3L65 256.1L104 271.1Z" fill="#2f9902" stroke="#2f9902"></path><path d="M825 318L785 290L795 355.9Z" fill="#218702" stroke="#218702"></path><path d="M825 318L826 262.1L785 290Z" fill="#002300" stroke="#002300"></path><path d="M783 147.4L817 103.6L781 116.6Z" fill="#005100" stroke="#005100"></path><path d="M65 256.1L64 283.1L104 271.1Z" fill="#005100" stroke="#005100"></path><path d="M123 0L143 42.9L155 37.9Z" fill="#117501" stroke="#117501"></path><path d="M825 342.9L825 318L795 355.9Z" fill="#4dbf00" stroke="#4dbf00"></path><path d="M85 99.6L105 101.7L71 46.9Z" fill="#3eac02" stroke="#3eac02"></path><path d="M136 56.7L105 101.7L177 66.7Z" fill="#3eac02" stroke="#3eac02"></path><path d="M814 392.7L795 355.9L776 376.7Z" fill="#218702" stroke="#218702"></path><path d="M836 199.4L781 200.3L826 262.1Z" fill="#2f9902" stroke="#2f9902"></path><path d="M746 555.1L750 514.3L650 532.3Z" fill="#006300" stroke="#006300"></path><path d="M826 410.6L814 392.7L741 427.6Z" fill="#117501" stroke="#117501"></path><path d="M746 555.1L650 532.3L656 568.1Z" fill="#218702" stroke="#218702"></path><path d="M826 410.6L741 427.6L808 481.4Z" fill="#3eac02" stroke="#3eac02"></path><path d="M68 105.7L65 187.3L101 182.4Z" fill="#002300" stroke="#002300"></path><path d="M35 312.9L45 321L64 283.1Z" fill="#2f9902" stroke="#2f9902"></path><path d="M836 199.4L826 262.1L862 270.1Z" fill="#000000" stroke="#000000"></path><path d="M836 199.4L831 194.3L781 200.3Z" fill="#4dbf00" stroke="#4dbf00"></path><path d="M781 116.6L785 67.9L746 88.7Z" fill="#004000" stroke="#004000"></path><path d="M42 447.4L106 481.4L114 444.6Z" fill="#002300" stroke="#002300"></path><path d="M114 444.6L106 481.4L141 476.4Z" fill="#002300" stroke="#002300"></path><path d="M845 311L826 262.1L825 318Z" fill="#002f00" stroke="#002f00"></path><path d="M793 71.7L785 67.9L781 116.6Z" fill="#000000" stroke="#000000"></path><path d="M793 71.7L781 116.6L817 103.6Z" fill="#005100" stroke="#005100"></path><path d="M758 67.7L783 0L697 0Z" fill="#3eac02" stroke="#3eac02"></path><path d="M71 46.9L105 101.7L136 56.7Z" fill="#004000" stroke="#004000"></path><path d="M105 101.7L85 99.6L101 182.4Z" fill="#004000" stroke="#004000"></path><path d="M878 333.9L845 311L825 342.9Z" fill="#117501" stroke="#117501"></path><path d="M825 342.9L845 311L825 318Z" fill="#3eac02" stroke="#3eac02"></path><path d="M35 312.9L64 283.1L0 264.1Z" fill="#218702" stroke="#218702"></path><path d="M64 283.1L45 321L99 327.9Z" fill="#218702" stroke="#218702"></path><path d="M89 402.7L42 447.4L114 444.6Z" fill="#002300" stroke="#002300"></path><path d="M817 103.6L783 147.4L831 194.3Z" fill="#000000" stroke="#000000"></path><path d="M785 67.9L791 43.9L758 67.7Z" fill="#002f00" stroke="#002f00"></path><path d="M808 481.4L741 427.6L759 486.4Z" fill="#117501" stroke="#117501"></path><path d="M814 392.7L858 406.7L825 342.9Z" fill="#4dbf00" stroke="#4dbf00"></path><path d="M173 600L203 600L187 550.1Z" fill="#117501" stroke="#117501"></path><path d="M187 550.1L203 600L227 563.1Z" fill="#2f9902" stroke="#2f9902"></path><path d="M603 600L695 600L647 570.1Z" fill="#000000" stroke="#000000"></path><path d="M812 489.3L808 481.4L759 486.4Z" fill="#002f00" stroke="#002f00"></path><path d="M853 96.7L817 103.6L864 102.6Z" fill="#002300" stroke="#002300"></path><path d="M695 600L746 555.1L656 568.1Z" fill="#117501" stroke="#117501"></path><path d="M0 264.1L64 283.1L65 256.1Z" fill="#005100" stroke="#005100"></path><path d="M45 321L33 371.7L99 327.9Z" fill="#002f00" stroke="#002f00"></path><path d="M20 179.4L65 256.1L65 187.3Z" fill="#2f9902" stroke="#2f9902"></path><path d="M71 46.9L68 105.7L85 99.6Z" fill="#004000" stroke="#004000"></path><path d="M85 99.6L68 105.7L101 182.4Z" fill="#002f00" stroke="#002f00"></path><path d="M123 0L136 56.7L143 42.9Z" fill="#004000" stroke="#004000"></path><path d="M108 537.1L115 528.3L63 513.3Z" fill="#4dbf00" stroke="#4dbf00"></path><path d="M106 481.4L115 528.3L141 476.4Z" fill="#002300" stroke="#002300"></path><path d="M812 489.3L759 486.4L750 514.3Z" fill="#002f00" stroke="#002f00"></path><path d="M841 18.9L791 43.9L793 71.7Z" fill="#002300" stroke="#002300"></path><path d="M793 71.7L791 43.9L785 67.9Z" fill="#4dbf00" stroke="#4dbf00"></path><path d="M845 311L862 270.1L826 262.1Z" fill="#218702" stroke="#218702"></path><path d="M864 102.6L817 103.6L831 194.3Z" fill="#117501" stroke="#117501"></path><path d="M900 319L862 270.1L845 311Z" fill="#117501" stroke="#117501"></path><path d="M852 408.6L814 392.7L826 410.6Z" fill="#000000" stroke="#000000"></path><path d="M753 600L768 541.3L746 555.1Z" fill="#4dbf00" stroke="#4dbf00"></path><path d="M746 555.1L768 541.3L750 514.3Z" fill="#004000" stroke="#004000"></path><path d="M155 600L173 600L187 550.1Z" fill="#3eac02" stroke="#3eac02"></path><path d="M0 327L33 371.7L45 321Z" fill="#002f00" stroke="#002f00"></path><path d="M768 541.3L812 489.3L750 514.3Z" fill="#3eac02" stroke="#3eac02"></path><path d="M837 492.3L852 408.6L826 410.6Z" fill="#002300" stroke="#002300"></path><path d="M695 600L734 587.1L746 555.1Z" fill="#002300" stroke="#002300"></path><path d="M814 537.1L837 492.3L812 489.3Z" fill="#4dbf00" stroke="#4dbf00"></path><path d="M189 0L123 0L155 37.9Z" fill="#004000" stroke="#004000"></path><path d="M63 513.3L115 528.3L106 481.4Z" fill="#005100" stroke="#005100"></path><path d="M115 528.3L155 600L187 550.1Z" fill="#3eac02" stroke="#3eac02"></path><path d="M837 492.3L826 410.6L808 481.4Z" fill="#004000" stroke="#004000"></path><path d="M900 444.6L858 406.7L852 408.6Z" fill="#218702" stroke="#218702"></path><path d="M852 408.6L858 406.7L814 392.7Z" fill="#4dbf00" stroke="#4dbf00"></path><path d="M33 371.7L30 399.6L89 402.7Z" fill="#3eac02" stroke="#3eac02"></path><path d="M0 404.6L30 399.6L33 371.7Z" fill="#002f00" stroke="#002f00"></path><path d="M695 600L734 600L734 587.1Z" fill="#218702" stroke="#218702"></path><path d="M734 587.1L753 600L746 555.1Z" fill="#006300" stroke="#006300"></path><path d="M108 537.1L155 600L115 528.3Z" fill="#006300" stroke="#006300"></path><path d="M38 118.6L65 187.3L68 105.7Z" fill="#002f00" stroke="#002f00"></path><path d="M38 118.6L20 179.4L65 187.3Z" fill="#117501" stroke="#117501"></path><path d="M35 312.9L0 327L45 321Z" fill="#004000" stroke="#004000"></path><path d="M791 43.9L783 0L758 67.7Z" fill="#2f9902" stroke="#2f9902"></path><path d="M787 0L783 0L791 43.9Z" fill="#006300" stroke="#006300"></path><path d="M858 406.7L878 333.9L825 342.9Z" fill="#004000" stroke="#004000"></path><path d="M0 85.7L38 118.6L68 105.7Z" fill="#002f00" stroke="#002f00"></path><path d="M30 399.6L42 447.4L89 402.7Z" fill="#4dbf00" stroke="#4dbf00"></path><path d="M123 0L71 46.9L136 56.7Z" fill="#2f9902" stroke="#2f9902"></path><path d="M841 18.9L787 0L791 43.9Z" fill="#4dbf00" stroke="#4dbf00"></path><path d="M20 179.4L0 264.1L65 256.1Z" fill="#117501" stroke="#117501"></path><path d="M864 102.6L831 194.3L900 175.4Z" fill="#002f00" stroke="#002f00"></path><path d="M817 103.6L853 96.7L793 71.7Z" fill="#002f00" stroke="#002f00"></path><path d="M831 194.3L836 199.4L900 175.4Z" fill="#006300" stroke="#006300"></path><path d="M734 600L753 600L734 587.1Z" fill="#4dbf00" stroke="#4dbf00"></path><path d="M812 489.3L837 492.3L808 481.4Z" fill="#002300" stroke="#002300"></path><path d="M814 537.1L812 489.3L768 541.3Z" fill="#000000" stroke="#000000"></path><path d="M900 330.9L900 319L878 333.9Z" fill="#000000" stroke="#000000"></path><path d="M0 264.1L0 325.9L35 312.9Z" fill="#3eac02" stroke="#3eac02"></path><path d="M30 399.6L0 404.6L42 447.4Z" fill="#000000" stroke="#000000"></path><path d="M0 325.9L0 327L35 312.9Z" fill="#000000" stroke="#000000"></path><path d="M57 513.3L63 513.3L42 447.4Z" fill="#4dbf00" stroke="#4dbf00"></path><path d="M42 447.4L63 513.3L106 481.4Z" fill="#000000" stroke="#000000"></path><path d="M108 537.1L92 585.1L155 600Z" fill="#000000" stroke="#000000"></path><path d="M825 550.1L814 537.1L796 600Z" fill="#3eac02" stroke="#3eac02"></path><path d="M0 327L0 360.7L33 371.7Z" fill="#000000" stroke="#000000"></path><path d="M900 203.3L836 199.4L862 270.1Z" fill="#3eac02" stroke="#3eac02"></path><path d="M853 96.7L841 18.9L793 71.7Z" fill="#2f9902" stroke="#2f9902"></path><path d="M20 179.4L0 187.3L0 264.1Z" fill="#2f9902" stroke="#2f9902"></path><path d="M0 173.4L0 187.3L20 179.4Z" fill="#218702" stroke="#218702"></path><path d="M0 173.4L20 179.4L0 124.6Z" fill="#006300" stroke="#006300"></path><path d="M0 499.3L57 513.3L42 447.4Z" fill="#002300" stroke="#002300"></path><path d="M63 513.3L65 546.1L108 537.1Z" fill="#002300" stroke="#002300"></path><path d="M900 319L845 311L878 333.9Z" fill="#005100" stroke="#005100"></path><path d="M900 319L900 256.1L862 270.1Z" fill="#2f9902" stroke="#2f9902"></path><path d="M900 330.9L878 333.9L900 384.7Z" fill="#002f00" stroke="#002f00"></path><path d="M0 124.6L20 179.4L38 118.6Z" fill="#005100" stroke="#005100"></path><path d="M900 384.7L878 333.9L858 406.7Z" fill="#218702" stroke="#218702"></path><path d="M76 0L60 27.9L71 46.9Z" fill="#006300" stroke="#006300"></path><path d="M71 46.9L0 85.7L68 105.7Z" fill="#3eac02" stroke="#3eac02"></path><path d="M900 256.1L900 203.3L862 270.1Z" fill="#004000" stroke="#004000"></path><path d="M123 0L76 0L71 46.9Z" fill="#4dbf00" stroke="#4dbf00"></path><path d="M0 360.7L0 404.6L33 371.7Z" fill="#218702" stroke="#218702"></path><path d="M900 203.3L900 175.4L836 199.4Z" fill="#002f00" stroke="#002f00"></path><path d="M0 573.1L65 546.1L57 513.3Z" fill="#002300" stroke="#002300"></path><path d="M57 513.3L65 546.1L63 513.3Z" fill="#002f00" stroke="#002f00"></path><path d="M900 444.6L900 384.7L858 406.7Z" fill="#002300" stroke="#002300"></path><path d="M865 486.4L852 408.6L837 492.3Z" fill="#002f00" stroke="#002f00"></path><path d="M796 600L814 537.1L768 541.3Z" fill="#4dbf00" stroke="#4dbf00"></path><path d="M814 537.1L825 550.1L837 492.3Z" fill="#2f9902" stroke="#2f9902"></path><path d="M65 546.1L92 585.1L108 537.1Z" fill="#3eac02" stroke="#3eac02"></path><path d="M825 550.1L865 486.4L837 492.3Z" fill="#117501" stroke="#117501"></path><path d="M0 85.7L71 46.9L0 32.9Z" fill="#002f00" stroke="#002f00"></path><path d="M0 85.7L0 124.6L38 118.6Z" fill="#4dbf00" stroke="#4dbf00"></path><path d="M900 91.7L853 96.7L864 102.6Z" fill="#002300" stroke="#002300"></path><path d="M900 35.9L841 18.9L853 96.7Z" fill="#000000" stroke="#000000"></path><path d="M753 600L796 600L768 541.3Z" fill="#117501" stroke="#117501"></path><path d="M900 474.4L900 444.6L865 486.4Z" fill="#2f9902" stroke="#2f9902"></path><path d="M0 404.6L0 453.4L42 447.4Z" fill="#117501" stroke="#117501"></path><path d="M60 600L76 600L92 585.1Z" fill="#006300" stroke="#006300"></path><path d="M0 32.9L71 46.9L60 27.9Z" fill="#005100" stroke="#005100"></path><path d="M900 175.4L900 109.6L864 102.6Z" fill="#000000" stroke="#000000"></path><path d="M900 474.4L865 486.4L900 483.3Z" fill="#004000" stroke="#004000"></path><path d="M865 486.4L900 444.6L852 408.6Z" fill="#005100" stroke="#005100"></path><path d="M60 600L92 585.1L65 546.1Z" fill="#000000" stroke="#000000"></path><path d="M92 585.1L76 600L155 600Z" fill="#4dbf00" stroke="#4dbf00"></path><path d="M900 109.6L900 91.7L864 102.6Z" fill="#3eac02" stroke="#3eac02"></path><path d="M76 0L39 0L60 27.9Z" fill="#2f9902" stroke="#2f9902"></path><path d="M900 483.3L865 486.4L900 560.1Z" fill="#2f9902" stroke="#2f9902"></path><path d="M900 35.9L858 0L841 18.9Z" fill="#002300" stroke="#002300"></path><path d="M841 18.9L858 0L787 0Z" fill="#006300" stroke="#006300"></path><path d="M0 453.4L0 499.3L42 447.4Z" fill="#117501" stroke="#117501"></path><path d="M900 560.1L865 486.4L825 550.1Z" fill="#218702" stroke="#218702"></path><path d="M0 573.1L60 600L65 546.1Z" fill="#005100" stroke="#005100"></path><path d="M39 0L0 32.9L60 27.9Z" fill="#3eac02" stroke="#3eac02"></path><path d="M796 600L841 600L825 550.1Z" fill="#006300" stroke="#006300"></path><path d="M900 91.7L900 35.9L853 96.7Z" fill="#004000" stroke="#004000"></path><path d="M39 0L0 0L0 32.9Z" fill="#006300" stroke="#006300"></path><path d="M900 35.9L900 0L858 0Z" fill="#3eac02" stroke="#3eac02"></path><path d="M0 499.3L0 573.1L57 513.3Z" fill="#002300" stroke="#002300"></path><path d="M841 600L900 560.1L825 550.1Z" fill="#002300" stroke="#002300"></path><path d="M0 573.1L0 600L60 600Z" fill="#002300" stroke="#002300"></path><path d="M841 600L900 600L900 560.1Z" fill="#3eac02" stroke="#3eac02"></path></g></svg>